<svg id="Layer_1" data-name="Layer 1" xmlns="http://www.w3.org/2000/svg" viewBox="0 0 250 65">
  <defs>
    <style>
      .cls-1 {
        fill: #27aae1;
      }
    </style>
  </defs>
  <title>Bitwage_LogoSuite_Official</title>
  <g>
    <path class="cls-1" d="M30.67,12.43H25.51a3.87,3.87,0,0,1-3.86-3.86V8H8V35.1A22.67,22.67,0,1,0,30.67,12.43ZM15.4,22.84a17.55,17.55,0,0,0,5.12,2.5V35.1A10.16,10.16,0,1,0,30.67,24.94H25.51A16.4,16.4,0,0,1,9.14,9.13h5.14A11.64,11.64,0,0,0,25.89,20.19h4.78A15.27,15.27,0,1,1,15.4,35.46V22.84Zm6.25,2.79a17.61,17.61,0,0,0,3.87.43h5.16a9,9,0,1,1-9,9V25.64Zm9,31A21.57,21.57,0,0,1,9.13,35.1V14.74A17.59,17.59,0,0,0,14.27,22V35.46a16.4,16.4,0,1,0,16.4-16.4H25.89A10.51,10.51,0,0,1,15.41,9.13h5.13a5,5,0,0,0,5,4.43h5.16A21.54,21.54,0,1,1,30.67,56.64Z"/>
    <path class="cls-1" d="M80.59,50.64a9.26,9.26,0,0,1-5.16-1.34A13.15,13.15,0,0,1,72,46.18v3.93H66.18v-35H72L72,29a12.64,12.64,0,0,1,3.45-3.38,9.1,9.1,0,0,1,5.13-1.37,11.45,11.45,0,0,1,4.36.86,11.28,11.28,0,0,1,3.76,2.54,12.67,12.67,0,0,1,2.66,4.12,14.64,14.64,0,0,1,1,5.61v0.1a15,15,0,0,1-1,5.6,12.33,12.33,0,0,1-2.63,4.12A10.93,10.93,0,0,1,85,49.77,11.51,11.51,0,0,1,80.59,50.64Zm-1.32-5a7,7,0,0,0,5.1-2.18,7.49,7.49,0,0,0,1.56-2.54,9.37,9.37,0,0,0,.58-3.38v-0.1a9.22,9.22,0,0,0-.58-3.33,7.77,7.77,0,0,0-1.56-2.57,7,7,0,0,0-5.1-2.2,7.06,7.06,0,0,0-2.83.58,6.93,6.93,0,0,0-2.35,1.64,8.3,8.3,0,0,0-1.6,2.57,8.75,8.75,0,0,0-.6,3.31v0.1a8.88,8.88,0,0,0,.6,3.33,7.85,7.85,0,0,0,1.6,2.57A7.09,7.09,0,0,0,79.26,45.6ZM98.38,15.42h6.28v5.51H98.38V15.42Zm0.24,9.39h5.85v25.3H98.62V24.81Zm21.9,25.73a10.6,10.6,0,0,1-2.93-.39,5.9,5.9,0,0,1-2.34-1.24,5.54,5.54,0,0,1-1.52-2.28,10,10,0,0,1-.53-3.52V29.79H110v-5h3.21v-7H119v7h6.8v5H119V42.2a3.13,3.13,0,0,0,.81,2.42,3.29,3.29,0,0,0,2.3.75,7.92,7.92,0,0,0,3.59-.86v4.75a10.12,10.12,0,0,1-2.35,1A11.06,11.06,0,0,1,120.52,50.54Zm9.12-26h3.14l7.31,21.31,7-21.38h2.38l7,21.38,7.31-21.31h3L157.7,50.29h-2.45l-7-20.76-7.05,20.76h-2.41Zm48.24-.18h2.71l11.66,25.77h-3.11l-3-6.76H172.22l-3,6.76h-3ZM185,40.76L179.2,27.71l-5.85,13.05H185Zm23.24,9.79a13.69,13.69,0,0,1-5.42-1,12,12,0,0,1-6.69-7,14.59,14.59,0,0,1-.89-5.14V37.32a13.74,13.74,0,0,1,.93-5,13.13,13.13,0,0,1,2.62-4.22,12.33,12.33,0,0,1,9.28-4,18.43,18.43,0,0,1,2.94.22,12.7,12.7,0,0,1,2.49.66A12,12,0,0,1,215.65,26a17.78,17.78,0,0,1,2,1.44l-1.86,2.2a13.74,13.74,0,0,0-1.54-1.19,10.5,10.5,0,0,0-1.74-.91,11,11,0,0,0-2-.6,13,13,0,0,0-2.47-.22,9.1,9.1,0,0,0-3.91.84A9.45,9.45,0,0,0,201,29.86a10.71,10.71,0,0,0-2,3.35,11.19,11.19,0,0,0-.73,4v0.08a12.12,12.12,0,0,0,.71,4.24,9.9,9.9,0,0,0,2,3.36,9.24,9.24,0,0,0,3.18,2.23,10.43,10.43,0,0,0,4.2.8,11.31,11.31,0,0,0,4.13-.75,12.1,12.1,0,0,0,3.26-1.81V39H208V36.44h10.56v10.2a16.42,16.42,0,0,1-4.41,2.76A14.3,14.3,0,0,1,208.25,50.55Zm16.78-26h18.49v2.59H227.91v8.8h14v2.6h-14v9H243.7v2.6H225V24.53Z"/>
  </g>
</svg>
